<svg width="20" height="20" viewBox="0 0 20 20" fill="none" xmlns="http://www.w3.org/2000/svg">
<path d="M5 9.25C4.58579 9.25 4.25 9.58579 4.25 10C4.25 10.4142 4.58579 10.75 5 10.75V10V9.25ZM16.5303 10.5303C16.8232 10.2374 16.8232 9.76256 16.5303 9.46967L11.7574 4.6967C11.4645 4.40381 10.9896 4.40381 10.6967 4.6967C10.4038 4.98959 10.4038 5.46447 10.6967 5.75736L14.9393 10L10.6967 14.2426C10.4038 14.5355 10.4038 15.0104 10.6967 15.3033C10.9896 15.5962 11.4645 15.5962 11.7574 15.3033L16.5303 10.5303ZM5 10V10.75L16 10.75V10V9.25L5 9.25V10Z" fill="#111827"/>
</svg>
