<svg width="16" height="16" viewBox="0 0 16 16" fill="none" xmlns="http://www.w3.org/2000/svg">
<path d="M6.86851 7.99986L4.04008 5.17143C3.8798 5.01116 3.79985 4.82259 3.80023 4.60575C3.80061 4.3889 3.88056 4.20034 4.04008 4.04006C4.1996 3.87979 4.38817 3.79984 4.60577 3.80021C4.82337 3.80059 5.01193 3.88054 5.17145 4.04006L7.99988 6.86849L10.8283 4.04006C10.9886 3.87979 11.1771 3.79984 11.394 3.80021C11.6108 3.80059 11.7994 3.88054 11.9597 4.04006C12.12 4.19959 12.2001 4.38834 12.2001 4.60631C12.2001 4.82429 12.12 5.01266 11.9597 5.17143L9.13125 7.99986L11.9597 10.8283C12.12 10.9886 12.2001 11.1773 12.2001 11.3945C12.2001 11.6118 12.12 11.8001 11.9597 11.9597C11.7994 12.1192 11.6106 12.1993 11.3934 12.2001C11.1762 12.2008 10.9878 12.1207 10.8283 11.9597L7.99988 9.13123L5.17145 11.9597C5.01117 12.1199 4.82242 12.2001 4.6052 12.2001C4.38798 12.2001 4.1996 12.1199 4.04008 11.9597C3.88056 11.7994 3.80061 11.6108 3.80023 11.394C3.79985 11.1771 3.8798 10.9886 4.04008 10.8283L6.86851 7.99986Z" fill="#111827"/>
</svg>
