<svg width="20" height="20" viewBox="0 0 20 20" fill="none" xmlns="http://www.w3.org/2000/svg">
<path fill-rule="evenodd" clip-rule="evenodd" d="M8.74997 1.59238C7.62046 1.59247 6.50735 1.86268 5.50351 2.38046C4.49967 2.89823 3.63421 3.64856 2.97933 4.56884C2.32445 5.48912 1.89914 6.55267 1.73889 7.67075C1.57864 8.78883 1.68809 9.92902 2.05812 10.9962C2.42814 12.0634 3.04801 13.0266 3.866 13.8055C4.68399 14.5844 5.67639 15.1564 6.7604 15.4737C7.8444 15.7911 8.98859 15.8446 10.0975 15.6298C11.2064 15.415 12.2478 14.9382 13.135 14.239L16.1783 17.2824C16.3355 17.4342 16.546 17.5182 16.7645 17.5163C16.983 17.5144 17.192 17.4267 17.3465 17.2722C17.501 17.1177 17.5886 16.9087 17.5905 16.6902C17.5924 16.4717 17.5084 16.2612 17.3566 16.104L14.3133 13.0607C15.1366 12.0162 15.6493 10.761 15.7926 9.43881C15.9358 8.11659 15.704 6.78073 15.1235 5.58412C14.543 4.38752 13.6374 3.37851 12.5102 2.67257C11.3831 1.96663 10.0799 1.59229 8.74997 1.59238ZM3.3333 8.67571C3.3333 7.23912 3.90398 5.86137 4.91981 4.84555C5.93563 3.82973 7.31338 3.25904 8.74997 3.25904C10.1866 3.25904 11.5643 3.82973 12.5801 4.84555C13.596 5.86137 14.1666 7.23912 14.1666 8.67571C14.1666 10.1123 13.596 11.49 12.5801 12.5059C11.5643 13.5217 10.1866 14.0924 8.74997 14.0924C7.31338 14.0924 5.93563 13.5217 4.91981 12.5059C3.90398 11.49 3.3333 10.1123 3.3333 8.67571Z" fill="#111827"/>
</svg>
