<svg width="16" height="16" viewBox="0 0 16 16" fill="none" xmlns="http://www.w3.org/2000/svg">
<path d="M12.7996 11.0762C12.2017 11.0762 11.6668 11.3122 11.2578 11.6819L5.64896 8.41736C5.68829 8.23643 5.71976 8.05551 5.71976 7.86671C5.71976 7.67792 5.68829 7.49699 5.64896 7.31606L11.1948 4.08294C11.6196 4.47626 12.1781 4.72012 12.7996 4.72012C14.1054 4.72012 15.1595 3.66602 15.1595 2.36018C15.1595 1.05435 14.1054 0.000244141 12.7996 0.000244141C11.4937 0.000244141 10.4396 1.05435 10.4396 2.36018C10.4396 2.54898 10.4711 2.72991 10.5104 2.91084L4.96458 6.14395C4.53979 5.75063 3.98127 5.50677 3.35982 5.50677C2.05398 5.50677 0.999878 6.56088 0.999878 7.86671C0.999878 9.17254 2.05398 10.2267 3.35982 10.2267C3.98127 10.2267 4.53979 9.98279 4.96458 9.58947L10.5655 12.8619C10.5262 13.0271 10.5026 13.2002 10.5026 13.3732C10.5026 14.6397 11.5331 15.6702 12.7996 15.6702C14.0661 15.6702 15.0966 14.6397 15.0966 13.3732C15.0966 12.1067 14.0661 11.0762 12.7996 11.0762Z" fill="#111827"/>
</svg>
